# AST/ASF file generated using VICON BodyLanguage
# -----------------------------------------------
:version 1.10
:name VICON
:units
  mass 1.0
  length 0.45
  angle deg
:documentation
   .ast/.asf automatically generated from VICON data using
   VICON BodyBuilder and BodyLanguage model FoxedUp or BRILLIANT.MOD
:root
   order TX TY TZ RX RY RZ
   axis XYZ
   position 0 0 0  
   orientation 0 0 0 
:bonedata
  begin
     id 1 
     name lhipjoint
     direction 0.630305 -0.712092 0.309259 
     length 2.29033 
     axis 0 0 0  XYZ
  end
  begin
     id 2 
     name lfemur
     direction 0.34202 -0.939693 0  
     length 6.43538  
     axis 0 0 20  XYZ
    dof rx ry rz
    limits (-160.0 20.0)
           (-70.0 70.0)
           (-60.0 70.0)
  end
  begin
     id 3 
     name ltibia
     direction 0.34202 -0.939693 0   
     length 7.43097   
     axis 0 0 20   XYZ
    dof rx
    limits (-10.0 170.0)
  end
  begin
     id 4 
     name lfoot
     direction 0.0334653 -0.0919451 0.995202   
     length 1.78438   
     axis -90 7.62852e-016 20   XYZ
    dof rx rz
    limits (-45.0 90.0)
           (-70.0 20.0)
  end
  begin
     id 5 
     name ltoes
     direction 1.53535e-011 -4.21933e-011 1   
     length 0.90832   
     axis -90 7.62852e-016 20   XYZ
    dof rx
    limits (-90.0 20.0)
  end
  begin
     id 6 
     name rhipjoint
     direction -0.682059 -0.67077 0.291312   
     length 2.43143  
     axis 0 0 0  XYZ 
  end
  begin
     id 7 
     name rfemur
     direction -0.34202 -0.939693 0   
     length 6.63488   
     axis 0 0 -20   XYZ
    dof rx ry rz
    limits (-160.0 20.0)
           (-70.0 70.0)
           (-70.0 60.0)
  end
  begin
     id 8 
     name rtibia
     direction -0.34202 -0.939693 0   
     length 6.86532   
     axis 0 0 -20   XYZ
    dof rx
    limits (-10.0 170.0)
 end
 begin
     id 9 
     name rfoot
     direction -0.105199 -0.289033 0.951521   
     length 1.77126  
     axis -90 -7.62852e-016 -20   XYZ
    dof rx rz
    limits (-45.0 90.0)
           (-20.0 70.0)
  end
  begin
     id 10 
     name rtoes
     direction -1.53551e-011 -4.21978e-011 1   
     length 0.889273   
     axis -90 -7.62852e-016 -20   XYZ
    dof rx
    limits (-90.0 20.0)
  end
  begin
     id 11 
     name lowerback
     direction -0.0514305 0.998089 0.034245   
     length 2.02077   
     axis 0 0 0   XYZ
    dof rx ry rz
    limits (-20.0 45.0)
           (-30.0 30.0)
           (-30.0 30.0)
  end
  begin
     id 12 
     name upperback
     direction 0.0203189 0.999449 -0.0262315   
     length 2.01413   
     axis 0 0 0   XYZ
    dof rx ry rz
    limits (-20.0 45.0)
           (-30.0 30.0)
           (-30.0 30.0)
  end
  begin
     id 13 
     name thorax
     direction 0.0452736 0.998142 -0.0407729   
     length 2.02986   
     axis 0 0 0   XYZ
    dof rx ry rz
    limits (-20.0 45.0)
           (-30.0 30.0)
           (-30.0 30.0)
  end
  begin
     id 14 
     name lowerneck
     direction -0.0180464 0.999645 -0.0195774   
     length 1.59034   
     axis 0 0 0   XYZ
    dof rx ry rz
    limits (-20.0 45.0)
           (-30.0 30.0)
           (-30.0 30.0)
  end
  begin
     id 15 
     name upperneck
     direction 0.0732272 0.979935 -0.18538   
     length 1.57486   
     axis 0 0 0   XYZ
    dof rx ry rz
    limits (-20.0 45.0)
           (-30.0 30.0)
           (-30.0 30.0)
  end
  begin
     id 16
     name head
     direction 0.0252963 0.997909 -0.059472  
     length 1.60334  
     axis 0 0 0   XYZ
    dof rx ry rz
    limits (-20.0 45.0)
           (-30.0 30.0)
           (-30.0 30.0)
  end
  begin
     id 17 
     name lclavicle
     direction 0.943819 0.330449 0.00315172  
     length 3.50322  
     axis 0 0 0   XYZ
    dof ry rz
    limits (-20.0 10.0)
           (0.0 20.0)
  end
  begin
     id 18 
     name lhumerus
     direction 1 -4.48949e-011 2.22502e-028   
     length 4.63208   
     axis 180 -30 -90   XYZ
    dof rx ry rz
    limits (-60.0 90.0)
           (-90.0 90.0)
           (-90.0 90.0)
  end
  begin
     id 19
     name lradius
     direction 1 -4.48967e-011 -4.10197e-027   
     length 3.41924   
     axis 180 -30 -90   XYZ
    dof rx
    limits (-10.0 170.0)
  end
  begin
     id 20
     name lwrist
     direction 1 -4.48987e-011 -1.24264e-027   
     length 1.70962   
     axis 2.50585e-015 90 90   XYZ
    dof ry
    limits (-180.0 0.0)
 end
  begin
     id 21 
     name lhand
     direction 1 -4.48983e-011 -2.48528e-027   
     length 0.62537   
     axis 1.58582e-015 90 90   XYZ
    dof rx rz
    limits (-90.0 90.0)
           (-45.0 45.0)
  end
  begin
     id 22 
     name lfingers
     direction 1 -4.48896e-011 -4.97056e-027   
     length 0.50419   
     axis 3.17164e-015 90 90   XYZ
    dof rx
    limits (0.0 90.0)
  end
  begin
     id 23
     name lthumb
     direction 0.707107 -6.34803e-011 0.707107   
     length 0.723919   
     axis -90 45 2.85299e-015   XYZ
    dof rx rz
    limits (-45.0 45.0)
           (-45.0 45.0)
  end
  begin
     id 24 
     name rclavicle
     direction -0.964499 0.260664 -0.0423695   
     length 3.91997  
     axis 0 0 0   XYZ 
    dof ry rz
    limits (-10.0 20.0)
           (-20.0 0.0)
  end
  begin
     id 25 
     name rhumerus
     direction -1 -4.48957e-011 -1.98656e-027  
     length 4.4064   
     axis 180 30 90   XYZ
    dof rx ry rz
    limits (-90.0 60.0)
           (-90.0 90.0)
           (-90.0 90.0)
  end
  begin
     id 26 
     name rradius
     direction -1 -4.48968e-011 1.96972e-027   
     length 3.44675   
     axis 180 30 90   XYZ
    dof rx
    limits (-10.0 170.0)
  end
  begin
     id 27 
     name rwrist
     direction -1 -4.48974e-011 -1.24264e-027   
     length 1.72338   
     axis 2.50585e-015 -90 -90   XYZ
    dof ry
    limits (-180.0 0.0)
  end
  begin
     id 28
     name rhand
     direction -1 -4.48901e-011 -2.48528e-027   
     length 0.513674   
     axis 1.58582e-015 -90 -90   XYZ
    dof rx rz
    limits (-90.0 90.0)
           (-45.0 45.0)
  end
  begin
     id 29
     name rfingers
     direction -1 -4.48946e-011 -4.97056e-027   
     length 0.414137   
     axis 3.17164e-015 -90 -90   XYZ
    dof rx
    limits (0.0 90.0)
  end
  begin
     id 30
     name rthumb
     direction -0.707107 -6.34859e-011 0.707107   
     length 0.59462   
     axis -90 -45 -2.85299e-015   XYZ
    dof rx rz
    limits (-45.0 45.0)
           (-45.0 45.0)
  end
:hierarchy
  begin
    root lhipjoint rhipjoint lowerback
    lhipjoint lfemur
    lfemur ltibia
    ltibia lfoot
    lfoot ltoes
    rhipjoint rfemur
    rfemur rtibia
    rtibia rfoot
    rfoot rtoes
    lowerback upperback
    upperback thorax
    thorax lowerneck lclavicle rclavicle
    lowerneck upperneck
    upperneck head
    lclavicle lhumerus
    lhumerus lradius
    lradius lwrist
    lwrist lhand lthumb
    lhand lfingers
    rclavicle rhumerus
    rhumerus rradius
    rradius rwrist
    rwrist rhand rthumb
    rhand rfingers
  end

#!OML:ASF E:\inclinewalkrobotboard\Project 1\Capture day 1\Session 1\subject1.ASF
:FULLY-SPECIFIED
:DEGREES
34
root 8.48412 9.51626 9.4848 -163.43 -52.3304 160.66
lowerback 28.5857 3.95455 2.48706
upperback 4.29082 6.05567 8.35671
thorax -11.6934 2.53601 5.95105
lowerneck -5.56727 5.35945 -3.05219
upperneck -22.4798 4.38858 -8.4255
head -5.7914 2.21395 -2.24047
rclavicle -4.45278e-014 7.63333e-014
rhumerus 3.58241 -25.8153 -60.2098
rradius 49.6668
rwrist -44.5932
rhand 1.73614 -19.2169
rfingers 7.12502
rthumb 27.2522 -47.268
lclavicle -4.45278e-014 7.63333e-014
lhumerus 8.21494 32.3083 21.9712
lradius 118.397
lwrist -18.5061
lhand -51.241 -32.4206
lfingers 7.12502
lthumb -23.7797 -3.87208
rfemur -72.2241 -19.5512 -17.5639
rtibia 104.598
rfoot -28.9041 19.1673
rtoes -46.6136
lfemur -55.743 1.24248 -26.0753
ltibia 127.081
lfoot -37.6676 5.56525
ltoes -71.6613
35
root 8.47123 9.63499 9.46241 -163.205 -52.1802 160.744
lowerback 28.3047 3.91853 2.56514
upperback 4.28358 6.01898 8.4014
thorax -11.55 2.51882 5.97677
lowerneck -5.59827 5.50633 -2.8283
upperneck -22.6756 4.53233 -8.57507
head -5.83176 2.26811 -2.33189
rclavicle 2.54444e-014 -3.18055e-014
rhumerus 4.1852 -26.0433 -60.7132
rradius 49.482
rwrist -44.323
rhand 1.53502 -18.9387
rfingers 7.12502
rthumb 27.0598 -47.0198
lclavicle 2.54444e-014 -3.18055e-014
lhumerus 8.23323 32.5211 21.7233
lradius 118.209
lwrist -18.5166
lhand -51.2574 -32.1799
lfingers 7.12502
lthumb -23.7955 -3.63343
rfemur -71.7114 -18.9567 -17.2841
rtibia 103.685
rfoot -29.2403 18.3268
rtoes -47.4294
lfemur -55.3277 0.966924 -26.1612
ltibia 125.879
lfoot -37.5704 5.81877
ltoes -71.6473
36
root 8.45966 9.74773 9.44297 -162.787 -51.9746 160.51
lowerback 28.1584 4.06482 2.54762
upperback 4.38231 6.18633 8.52626
thorax -11.3938 2.59548 6.07021
lowerneck -6.16625 5.48381 -3.07629
upperneck -22.6792 4.47032 -8.667
head -5.74933 2.23087 -2.30395
rclavicle 9.54166e-015 -1.90833e-014
rhumerus 4.62082 -26.1509 -60.4584
rradius 49.2946
rwrist -44.6022
rhand 1.21624 -18.5685
rfingers 7.12502
rthumb 26.7548 -46.6966
lclavicle 9.54166e-015 -1.90833e-014
lhumerus 8.66656 32.8493 22.2193
lradius 118.034
lwrist -18.5801
lhand -51.1595 -32.4056
lfingers 7.12502
lthumb -23.7016 -3.84697
rfemur -71.1917 -18.4983 -17.2556
rtibia 102.809
rfoot -29.3436 18.0047
rtoes -47.2125
lfemur -54.7953 0.678596 -26.4603
ltibia 124.678
lfoot -37.5057 6.06828
ltoes -71.6185
37
root 8.44492 9.86685 9.42741 -162.414 -51.7562 160.403
lowerback 27.9997 4.0228 2.54162
upperback 4.2068 6.15841 8.54903
thorax -11.5175 2.59374 6.11646
lowerneck -5.74109 5.70199 -2.63911
upperneck -22.8242 4.68516 -9.04321
head -5.82947 2.33847 -2.51492
rclavicle 5.24792e-014 5.08889e-014
rhumerus 4.80704 -25.5487 -60.2451
rradius 48.8226
rwrist -45.1054
rhand 1.34629 -18.5585
rfingers 7.12502
rthumb 26.8792 -46.6675
lclavicle 5.24792e-014 5.08889e-014
lhumerus 8.50532 32.7995 21.9321
lradius 117.911
lwrist -18.3947
lhand -51.1086 -32.7762
lfingers 7.12502
lthumb -23.6528 -4.21129
rfemur -70.6656 -17.9055 -17.1994
rtibia 101.877
rfoot -29.2043 17.9379
rtoes -46.0671
lfemur -54.2775 0.415614 -26.6569
ltibia 123.408
lfoot -37.4043 6.25616
ltoes -71.599
38
root 8.43142 9.92016 9.39083 -162.065 -51.6126 160.394
lowerback 27.6827 4.03285 2.70099
upperback 4.01432 6.24242 8.58624
thorax -11.5731 2.63852 6.04275
lowerneck -5.62995 5.64331 -2.59564
upperneck -22.6325 4.64326 -9.01182
head -5.78649 2.32117 -2.50949
rclavicle -6.36111e-014 1.11319e-013
rhumerus 4.82644 -25.6651 -60.0998
rradius 48.6694
rwrist -45.1779
rhand 1.85926 -19.3492
rfingers 7.12502
rthumb 27.37 -47.3818
lclavicle -6.36111e-014 1.11319e-013
lhumerus 8.85699 32.4616 22.2142
lradius 117.71
lwrist -18.5416
lhand -51.067 -32.9111
lfingers 7.12502
lthumb -23.6129 -4.34103
rfemur -70.725 -17.6913 -17.056
rtibia 101.418
rfoot -28.7836 18.0683
rtoes -45.0319
lfemur -54.1565 0.561646 -26.4484
ltibia 122.625
lfoot -37.3247 5.91751
ltoes -71.5875
39
root 8.41376 10.0456 9.36178 -161.599 -51.4144 160.125
lowerback 27.4374 4.09477 2.61205
upperback 3.82601 6.32971 8.62669
thorax -11.6894 2.6976 6.11537
lowerneck -5.49062 5.51439 -2.93894
upperneck -22.4981 4.55734 -8.60873
head -5.79522 2.29273 -2.32359
rclavicle 1.22451e-013 6.67916e-014
rhumerus 4.61021 -26.32 -60.295
rradius 49.1453
rwrist -44.7948
rhand 1.85433 -19.9309
rfingers 7.12502
rthumb 27.3653 -47.9642
lclavicle 1.22451e-013 6.67916e-014
lhumerus 9.21738 32.0275 22.7341
lradius 117.539
lwrist -19.0087
lhand -51.0075 -32.7459
lfingers 7.12502
lthumb -23.5558 -4.16843
rfemur -70.1417 -17.287 -17.0092
rtibia 100.505
rfoot -28.7357 17.7957
rtoes -44.5245
lfemur -53.4997 0.314726 -26.6768
ltibia 121.223
lfoot -37.0685 6.00215
ltoes -71.5558
